<?xml version="1.0" encoding="UTF-8" standalone="no"?>
<!-- Created with Inkscape (http://www.inkscape.org/) -->

<svg
   xmlns:dc="http://purl.org/dc/elements/1.1/"
   xmlns:cc="http://creativecommons.org/ns#"
   xmlns:rdf="http://www.w3.org/1999/02/22-rdf-syntax-ns#"
   xmlns:svg="http://www.w3.org/2000/svg"
   xmlns="http://www.w3.org/2000/svg"
   xmlns:sodipodi="http://sodipodi.sourceforge.net/DTD/sodipodi-0.dtd"
   xmlns:inkscape="http://www.inkscape.org/namespaces/inkscape"
   width="139.64909mm"
   height="52.941551mm"
   viewBox="0 0 139.64909 52.941551"
   version="1.1"
   id="svg1"
   inkscape:export-filename="logo.svg"
   inkscape:export-xdpi="96"
   inkscape:export-ydpi="96"
   sodipodi:docname="logo-new.svg"
   inkscape:version="0.92.4 (5da689c313, 2019-01-14)">
  <metadata
     id="metadata17">
    <rdf:RDF>
      <cc:Work
         rdf:about="">
        <dc:format>image/svg+xml</dc:format>
        <dc:type
           rdf:resource="http://purl.org/dc/dcmitype/StillImage" />
        <dc:title></dc:title>
      </cc:Work>
    </rdf:RDF>
  </metadata>
  <sodipodi:namedview
     id="namedview1"
     pagecolor="#ffffff"
     bordercolor="#000000"
     borderopacity="0.25"
     inkscape:showpageshadow="2"
     inkscape:pageopacity="0.0"
     inkscape:pagecheckerboard="0"
     inkscape:deskcolor="#d1d1d1"
     inkscape:document-units="mm"
     inkscape:lockguides="true"
     showguides="true"
     showgrid="false"
     inkscape:zoom="1.2405674"
     inkscape:cx="236.77963"
     inkscape:cy="-22.008726"
     inkscape:window-width="1280"
     inkscape:window-height="957"
     inkscape:window-x="1600"
     inkscape:window-y="0"
     inkscape:window-maximized="1"
     inkscape:current-layer="text1-3">
    <sodipodi:guide
       position="104.03756,180.86505"
       orientation="0,-1"
       id="guide2"
       inkscape:locked="true" />
  </sodipodi:namedview>
  <defs
     id="defs1" />
  <g
     inkscape:label="Layer 1"
     inkscape:groupmode="layer"
     id="layer1"
     transform="translate(-19.123875,-86.948351)">
    <rect
       style="display:none;fill:#202126;stroke-width:0;stroke-linecap:round"
       id="rect1"
       width="244.60399"
       height="152.05843"
       x="-13.13438"
       y="34.139664" />
    <g
       id="g18"
       inkscape:label="Logo"
       transform="matrix(0.80202441,0,0,0.7213444,23.705177,56.736787)"
       inkscape:export-filename="logo.svg"
       inkscape:export-xdpi="1000"
       inkscape:export-ydpi="1000">
      <path
         style="fill:#ffdeb8;fill-opacity:1;stroke:none;stroke-width:0.75862998;stroke-linecap:round;stroke-dasharray:none;stroke-opacity:1"
         id="path15"
         d="m 44.933183,54.621605 c 14.808864,6.569424 15.650896,33.385054 16.617118,49.007185 l 1.283502,-1.65071 C 63.395196,93.979133 64.482971,61.479349 44.825597,52.640336 Z"
         sodipodi:nodetypes="ccccc"
         inkscape:connector-curvature="0" />
      <path
         style="fill:#ffdeb8;fill-opacity:1;stroke:none;stroke-width:0.72640198;stroke-linecap:round;stroke-dasharray:none;stroke-opacity:1"
         id="path16"
         d="m 63.604607,104.43531 c 14.040155,-8.178066 40.926113,-8.660109 44.978403,0.47503 l 0.23357,-1.23463 C 99.800096,90.035113 70.294027,96.941207 64.368955,101.59565 Z"
         sodipodi:nodetypes="ccccc"
         inkscape:connector-curvature="0" />
      <path
         style="fill:#f59487;fill-opacity:1;stroke:none;stroke-width:0;stroke-linecap:round;stroke-dasharray:none;stroke-opacity:1"
         id="path17"
         d="m 52.453605,115.0094 4.131637,0.26579 C 60.081377,76.765654 49.638202,54.546592 26.037997,41.8823 c 0.03989,0.04283 0.204617,2.320144 0.204617,2.320144 13.212269,9.642199 28.919821,20.158364 26.210991,70.806956 z"
         sodipodi:nodetypes="ccccc"
         inkscape:connector-curvature="0" />
      <path
         style="fill:#f59487;fill-opacity:1;stroke:none;stroke-width:0.871355;stroke-linecap:round;stroke-dasharray:none;stroke-opacity:1"
         id="path18"
         d="m 58.131549,113.93467 c 21.550348,-9.60968 51.541821,-5.42498 60.776171,-1.36327 l -1.18567,-2.29309 C 117.56938,110.1279 86.475955,98.573661 58.492593,109.21044 Z"
         sodipodi:nodetypes="ccccc"
         inkscape:connector-curvature="0" />
    </g>
    <g
       aria-label="ibris"
       transform="scale(1.0544415,0.94836939)"
       style="font-style:normal;font-variant:normal;font-weight:normal;font-stretch:normal;font-size:37.5658989px;font-family:'Cormorant Unicase';-inkscape-font-specification:'Cormorant Unicase, Normal';font-variant-ligatures:normal;font-variant-caps:normal;font-variant-numeric:normal;fill:#ffdeb8;fill-opacity:1;stroke-width:0;stroke-linecap:round"
       id="text1">
      <path
         d="m 83.107125,126.31542 q 0,1.16455 0.187829,1.69047 0.225396,0.52592 0.788884,0.71375 0.563489,0.18783 1.840729,0.18783 0.07513,0 0.07513,0.2254 0,0.22539 -0.07513,0.22539 -1.051845,0 -1.652899,-0.0376 l -2.366652,-0.0376 -2.216388,0.0376 q -0.63862,0.0376 -1.728031,0.0376 -0.07513,0 -0.07513,-0.22539 0,-0.2254 0.07513,-0.2254 1.27724,0 1.840729,-0.18783 0.563488,-0.18783 0.751318,-0.71375 0.225395,-0.52592 0.225395,-1.69047 v -11.49516 q 0,-1.12698 -0.225395,-1.6529 -0.18783,-0.52592 -0.788884,-0.71375 -0.563489,-0.2254 -1.803163,-0.2254 -0.07513,0 -0.07513,-0.22539 0,-0.2254 0.07513,-0.2254 l 1.728031,0.0376 q 1.352372,0.0751 2.216388,0.0751 0.976714,0 2.404218,-0.0751 l 1.615333,-0.0376 q 0.07513,0 0.07513,0.2254 0,0.22539 -0.07513,0.22539 -1.202108,0 -1.803163,0.2254 -0.601054,0.22539 -0.82645,0.78888 -0.187829,0.52592 -0.187829,1.6529 z"
         style="font-style:normal;font-variant:normal;font-weight:normal;font-stretch:normal;font-size:37.5658989px;font-family:'Cormorant Unicase';-inkscape-font-specification:'Cormorant Unicase, Normal';font-variant-ligatures:normal;font-variant-caps:normal;font-variant-numeric:normal;fill:#ffdeb8;fill-opacity:1;stroke-width:0"
         id="path829"
         inkscape:connector-curvature="0" />
      <path
         d="m 98.734511,119.59113 q 2.855009,0.15026 4.395209,1.27724 1.57777,1.08941 1.57777,3.15553 0,2.44179 -1.95343,3.98199 -1.95342,1.50263 -5.033828,1.50263 -0.976714,0 -2.29152,-0.11269 -0.525923,-0.0376 -1.239675,-0.0751 -0.713752,-0.0376 -1.540202,-0.0376 l -2.178822,0.0376 q -0.63862,0.0376 -1.728031,0.0376 -0.07513,0 -0.07513,-0.22539 0,-0.2254 0.07513,-0.2254 1.277241,0 1.840729,-0.18783 0.601054,-0.18783 0.788884,-0.71375 0.225395,-0.56349 0.225395,-1.69047 v -11.49516 q 0,-1.12698 -0.225395,-1.6529 -0.18783,-0.52592 -0.788884,-0.71375 -0.563488,-0.2254 -1.803163,-0.2254 -0.07513,0 -0.07513,-0.22539 0,-0.2254 0.07513,-0.2254 l 1.690465,0.0376 q 1.427504,0.0751 2.178822,0.0751 1.01428,0 2.066125,-0.1127 0.375659,-0.0376 1.051845,-0.0751 0.713752,-0.0376 1.239675,-0.0376 2.704744,0 4.20738,0.97672 1.50264,0.97671 1.50264,2.74231 0,1.72803 -1.42751,2.9677 -1.389936,1.23968 -3.681456,1.61534 z m -2.704745,-7.43805 q -0.901581,0 -1.352372,0.22539 -0.450791,0.18783 -0.63862,0.78889 -0.18783,0.56349 -0.18783,1.72803 v 4.846 l -0.939147,-0.18783 q 1.014279,0.1127 2.704744,0.1127 2.47935,0 3.606327,-0.67619 1.126972,-0.71375 1.126972,-2.81744 0,-2.10369 -1.089406,-3.04284 -1.089411,-0.97671 -3.230668,-0.97671 z m 1.01428,16.75439 q 5.184094,0 5.184094,-4.01955 0,-2.14126 -1.57777,-3.38093 -1.577766,-1.23968 -4.845999,-1.23968 -1.728031,0 -2.892574,0.2254 l 0.939147,-0.30053 v 6.12324 q 0,1.42751 0.638621,2.02856 0.676186,0.56349 2.554481,0.56349 z"
         style="font-style:normal;font-variant:normal;font-weight:normal;font-stretch:normal;font-size:37.5658989px;font-family:'Cormorant Unicase';-inkscape-font-specification:'Cormorant Unicase, Normal';font-variant-ligatures:normal;font-variant-caps:normal;font-variant-numeric:normal;fill:#ffdeb8;fill-opacity:1;stroke-width:0"
         id="path831"
         inkscape:connector-curvature="0" />
      <path
         d="m 115.37567,128.90747 q 0.0751,0 0.0751,0.2254 0,0.22539 -0.0751,0.22539 -1.05184,0 -1.61533,-0.0376 l -2.36665,-0.0376 -2.21639,0.0376 q -0.63862,0.0376 -1.72803,0.0376 -0.0751,0 -0.0751,-0.22539 0,-0.2254 0.0751,-0.2254 1.23967,0 1.80316,-0.18783 0.60105,-0.18783 0.82645,-0.71375 0.2254,-0.56349 0.2254,-1.69047 v -11.49516 q 0,-1.12698 -0.2254,-1.6529 -0.18783,-0.52592 -0.78888,-0.71375 -0.56349,-0.2254 -1.80317,-0.2254 -0.0751,0 -0.0751,-0.22539 0,-0.2254 0.0751,-0.2254 l 1.72803,0.0376 q 1.35238,0.0751 2.17883,0.0751 0.67618,0 1.23967,-0.0376 0.60106,-0.0376 1.01428,-0.0751 1.20211,-0.1127 2.21639,-0.1127 2.44178,0 3.71902,0.93915 1.27724,0.93915 1.27724,2.70474 0,1.54021 -0.90158,2.85501 -0.90158,1.31481 -2.47935,2.10369 -1.57777,0.75132 -3.45606,0.75132 -1.20211,0 -2.06613,-0.15026 l -0.0376,-0.75132 q 0.93915,0.26296 2.36665,0.26296 2.32909,0 3.23067,-1.01428 0.93915,-1.05184 0.93915,-3.04284 0,-4.13224 -3.56877,-4.13224 -1.4275,0 -1.87829,0.60105 -0.41322,0.60105 -0.41322,2.10369 v 11.42003 q 0,1.16455 0.18782,1.69047 0.18783,0.52592 0.75132,0.71375 0.56349,0.18783 1.84073,0.18783 z m 11.15707,0 q 0.0751,0 0.0751,0.2254 0,0.22539 -0.0751,0.22539 h -4.39521 q -0.67618,0 -2.44178,-2.32908 -1.7656,-2.32909 -4.20738,-6.38621 l 1.99099,-0.78888 q 2.17882,3.56876 3.64389,5.48462 1.46507,1.91586 2.70475,2.74231 1.27724,0.82645 2.70474,0.82645 z"
         style="font-style:normal;font-variant:normal;font-weight:normal;font-stretch:normal;font-size:37.5658989px;font-family:'Cormorant Unicase';-inkscape-font-specification:'Cormorant Unicase, Normal';font-variant-ligatures:normal;font-variant-caps:normal;font-variant-numeric:normal;fill:#ffdeb8;fill-opacity:1;stroke-width:0"
         id="path833"
         inkscape:connector-curvature="0" />
      <path
         d="m 132.84342,126.31542 q 0,1.16455 0.18783,1.69047 0.2254,0.52592 0.78889,0.71375 0.56348,0.18783 1.84072,0.18783 0.0751,0 0.0751,0.2254 0,0.22539 -0.0751,0.22539 -1.05184,0 -1.65289,-0.0376 l -2.36666,-0.0376 -2.21638,0.0376 q -0.63862,0.0376 -1.72804,0.0376 -0.0751,0 -0.0751,-0.22539 0,-0.2254 0.0751,-0.2254 1.27724,0 1.84073,-0.18783 0.56349,-0.18783 0.75132,-0.71375 0.2254,-0.52592 0.2254,-1.69047 v -11.49516 q 0,-1.12698 -0.2254,-1.6529 -0.18783,-0.52592 -0.78888,-0.71375 -0.56349,-0.2254 -1.80317,-0.2254 -0.0751,0 -0.0751,-0.22539 0,-0.2254 0.0751,-0.2254 l 1.72804,0.0376 q 1.35237,0.0751 2.21638,0.0751 0.97672,0 2.40422,-0.0751 l 1.61533,-0.0376 q 0.0751,0 0.0751,0.2254 0,0.22539 -0.0751,0.22539 -1.2021,0 -1.80316,0.2254 -0.60105,0.22539 -0.82645,0.78888 -0.18783,0.52592 -0.18783,1.6529 z"
         style="font-style:normal;font-variant:normal;font-weight:normal;font-stretch:normal;font-size:37.5658989px;font-family:'Cormorant Unicase';-inkscape-font-specification:'Cormorant Unicase, Normal';font-variant-ligatures:normal;font-variant-caps:normal;font-variant-numeric:normal;fill:#ffdeb8;fill-opacity:1;stroke-width:0"
         id="path835"
         inkscape:connector-curvature="0" />
      <path
         d="m 141.55868,114.82026 q 0,1.61533 1.08941,2.62961 1.08941,0.97671 3.26824,2.06613 1.5402,0.78888 2.44178,1.4275 0.93915,0.63862 1.57777,1.57777 0.63862,0.93914 0.63862,2.25395 0,1.38994 -0.78889,2.55448 -0.75131,1.12698 -2.17882,1.80317 -1.4275,0.67618 -3.34336,0.67618 -2.66718,0 -4.50791,-1.3148 -0.18783,-0.0751 -0.26296,-0.2254 -0.0376,-0.15026 -0.0751,-0.48836 l -0.37566,-3.71902 q -0.0376,-0.15026 0.15026,-0.18783 0.2254,-0.0376 0.30053,0.1127 0.52592,2.17882 2.06612,3.71902 1.57777,1.50264 3.49363,1.50264 1.31481,0 2.25395,-0.75132 0.97672,-0.78888 0.97672,-2.40422 0,-1.72803 -1.12698,-2.81744 -1.12698,-1.08941 -3.26823,-2.21639 -1.50264,-0.82645 -2.40422,-1.4275 -0.86402,-0.63862 -1.46507,-1.5402 -0.60105,-0.90159 -0.60105,-2.17883 0,-2.14125 1.65289,-3.34336 1.6529,-1.20211 4.01956,-1.20211 1.91586,0 3.75659,0.86402 0.33809,0.18782 0.41322,0.30052 0.1127,0.1127 0.15026,0.3381 l 0.2254,3.26823 q 0,0.15026 -0.2254,0.18783 -0.18783,0.0376 -0.22539,-0.1127 -0.18783,-0.93915 -0.86402,-1.91586 -0.63862,-1.01428 -1.6529,-1.69047 -1.01428,-0.67618 -2.25395,-0.67618 -1.35237,0 -2.10369,0.82645 -0.75132,0.82645 -0.75132,2.10369 z"
         style="font-style:normal;font-variant:normal;font-weight:normal;font-stretch:normal;font-size:37.5658989px;font-family:'Cormorant Unicase';-inkscape-font-specification:'Cormorant Unicase, Normal';font-variant-ligatures:normal;font-variant-caps:normal;font-variant-numeric:normal;fill:#ffdeb8;fill-opacity:1;stroke-width:0"
         id="path837"
         inkscape:connector-curvature="0" />
    </g>
    <g
       aria-label="Ex"
       transform="scale(1.0544415,0.94836939)"
       style="font-style:normal;font-variant:normal;font-weight:normal;font-stretch:normal;font-size:37.5658989px;font-family:'Cormorant Unicase';-inkscape-font-specification:'Cormorant Unicase, Normal';font-variant-ligatures:normal;font-variant-caps:normal;font-variant-numeric:normal;fill:#ffdeb8;fill-opacity:1;stroke-width:0;stroke-linecap:round"
       id="text1-3">
      <path
         d="m 18.211628,129.21954 q -0.07513,0 -0.07513,-0.22539 0,-0.2254 0.07513,-0.2254 1.427504,0 2.066124,-0.18783 0.676187,-0.18783 0.901582,-0.71375 0.262961,-0.56349 0.262961,-1.69046 v -17.39302 q 0,-1.12697 -0.262961,-1.6529 -0.225395,-0.52592 -0.901582,-0.71375 -0.63862,-0.22539 -2.066124,-0.22539 -0.07513,0 -0.07513,-0.2254 0,-0.22539 0.07513,-0.22539 h 15.101491 q 0.338094,0 0.338094,0.33809 l 0.07513,4.62061 q 0,0.11269 -0.225395,0.15026 -0.18783,0 -0.18783,-0.1127 -0.112697,-1.99099 -1.202108,-3.0804 -1.089411,-1.12698 -2.892575,-1.12698 h -2.291519 q -1.314807,0 -1.953427,0.2254 -0.63862,0.18783 -0.901582,0.67618 -0.225395,0.48836 -0.225395,1.5402 v 17.05492 q 0,1.01428 0.225395,1.5402 0.262962,0.48836 0.864016,0.67619 0.601054,0.18783 1.878295,0.18783 h 3.005272 q 1.803163,0 3.005272,-1.27724 1.202108,-1.27724 1.615333,-3.5312 0,-0.0751 0.150264,-0.0751 0.112698,0 0.187829,0.0751 0.112698,0.0376 0.112698,0.0751 -0.338093,2.36665 -0.338093,4.95869 0,0.30053 -0.150264,0.4508 -0.112697,0.11269 -0.45079,0.11269 z m 13.636421,-8.75285 q 0,-1.6529 -0.826449,-2.36665 -0.788884,-0.71375 -2.667179,-0.71375 h -5.634885 v -0.78889 h 5.747582 q 1.803164,0 2.554482,-0.60105 0.788883,-0.60106 0.788883,-2.02856 0,-0.0751 0.225396,-0.0751 0.225395,0 0.225395,0.0751 l -0.03757,3.04284 q 0,1.08941 0.03757,1.6529 l 0.03757,1.80316 q 0,0.0751 -0.225395,0.0751 -0.225396,0 -0.225396,-0.0751 z"
         style="font-style:normal;font-variant:normal;font-weight:normal;font-stretch:normal;font-size:37.5658989px;font-family:'Cormorant Unicase';-inkscape-font-specification:'Cormorant Unicase, Normal';font-variant-ligatures:normal;font-variant-caps:normal;font-variant-numeric:normal;fill:#ffdeb8;fill-opacity:1;stroke-width:0"
         id="path824"
         inkscape:connector-curvature="0" />
      <path
         d="m 42.40359,126.21427 q -0.751318,1.12698 -0.751318,1.61534 0,0.93914 2.141256,0.93914 0.112698,0 0.112698,0.2254 0,0.22539 -0.112698,0.22539 -1.014279,0 -1.577767,-0.0376 l -2.29152,-0.0376 -1.352372,0.0376 q -0.375659,0.0376 -1.202109,0.0376 -0.07513,0 -0.07513,-0.22539 0,-0.2254 0.07513,-0.2254 0.976713,0 2.10369,-0.67618 1.126977,-0.71376 2.141256,-2.10369 l 4.132249,-5.78515 0.563489,0.30052 z m 7.287785,-11.5703 q 0.751318,-1.2021 0.751318,-1.65289 0,-0.90159 -2.066125,-0.90159 -0.112698,0 -0.112698,-0.22539 0,-0.2254 0.112698,-0.2254 l 1.502636,0.0376 q 1.277241,0.0751 2.253954,0.0751 0.601054,0 1.352372,-0.0751 l 1.202109,-0.0376 q 0.07513,0 0.07513,0.2254 0,0.22539 -0.07513,0.22539 -1.014279,0 -2.141256,0.67619 -1.089411,0.63862 -2.10369,2.10369 l -3.981986,5.52219 -0.413225,-0.3381 z m 5.559753,14.12478 q 0.07513,0 0.07513,0.2254 0,0.22539 -0.07513,0.22539 l -1.427505,-0.0376 q -0.488356,-0.0376 -1.352372,-0.0376 l -2.366652,0.0376 q -0.525922,0.0376 -1.427504,0.0376 -0.112697,0 -0.112697,-0.22539 0,-0.2254 0.112697,-0.2254 0.751318,0 1.051845,-0.0751 0.338094,-0.1127 0.338094,-0.33809 0,-0.30053 -0.525923,-1.05185 L 41.163916,114.7567 q -0.939148,-1.4275 -1.953427,-2.02856 -1.014279,-0.63862 -1.878295,-0.63862 -0.07513,0 -0.07513,-0.22539 0,-0.2254 0.07513,-0.2254 l 1.164543,0.0376 q 0.826449,0.0751 1.164543,0.0751 1.014279,0 2.592047,-0.0751 l 1.652899,-0.0376 q 0.07513,0 0.07513,0.2254 0,0.22539 -0.07513,0.22539 -0.788884,0 -1.089411,0.1127 -0.300527,0.0751 -0.300527,0.33809 0,0.3381 0.488357,1.05185 l 8.414761,12.50944 q 0.939147,1.42751 1.953427,2.06613 1.014279,0.60105 1.878295,0.60105 z"
         style="font-style:normal;font-variant:normal;font-weight:normal;font-stretch:normal;font-size:37.5658989px;font-family:'Cormorant Unicase';-inkscape-font-specification:'Cormorant Unicase, Normal';font-variant-ligatures:normal;font-variant-caps:normal;font-variant-numeric:normal;fill:#ffdeb8;fill-opacity:1;stroke-width:0"
         id="path826"
         inkscape:connector-curvature="0" />
    </g>
  </g>
</svg>
